<svg width="20" height="16" viewBox="0 0 20 16" fill="none" xmlns="http://www.w3.org/2000/svg">
<path d="M1.97591 0H5.33854H10.1286H14.8161H18.0241C18.5677 0 19.0625 0.228834 19.4206 0.594634C19.7786 0.962105 20 1.46988 20 2.02777V3.21871V12.7813V13.9655C20 14.5234 19.777 15.0312 19.4206 15.3987C19.0625 15.7662 18.5677 15.9933 18.0241 15.9933H14.8991C14.873 15.9983 14.8454 16 14.8161 16C14.7884 16 14.7607 15.9983 14.7331 15.9933H10.2116C10.1855 15.9983 10.1579 16 10.1286 16C10.1009 16 10.0732 15.9983 10.0456 15.9933H5.42155C5.39551 15.9983 5.36784 16 5.33854 16C5.31087 16 5.2832 15.9983 5.25553 15.9933H1.97591C1.43229 15.9933 0.9375 15.7645 0.579427 15.3987C0.221354 15.0329 0 14.5234 0 13.9655V12.7813V3.21871V2.02777C0 1.46988 0.222982 0.962105 0.579427 0.594634C0.9375 0.228834 1.43229 0 1.97591 0ZM8.98275 5.21808L12.3242 7.60998C12.3763 7.64339 12.4235 7.69016 12.4609 7.74528C12.6107 7.96743 12.5553 8.26976 12.3405 8.42343L9.01204 10.7853C8.93066 10.8537 8.82487 10.8955 8.71094 10.8955C8.44727 10.8955 8.23405 10.6767 8.23405 10.4061V5.61729H8.23568C8.23568 5.52041 8.26335 5.42353 8.32031 5.33834C8.47168 5.11786 8.7679 5.06441 8.98275 5.21808ZM15.2913 13.2707V15.0162H18.0225C18.304 15.0162 18.5596 14.8976 18.7451 14.7072C18.9307 14.5168 19.0462 14.2545 19.0462 13.9655V13.2707H15.2913ZM14.3392 15.0162V13.2707H10.6055V15.0162H14.3392ZM9.65332 15.0162V13.2707H5.81543V15.0162H9.65332ZM4.86165 15.0162V13.2707H0.952148V13.9655C0.952148 14.2545 1.06771 14.5168 1.25326 14.7072C1.4388 14.8976 1.69434 15.0162 1.97591 15.0162H4.86165ZM0.952148 12.2936H5.33854H10.1286H14.8161H19.0479V3.70811H14.8161H10.1286H5.33854H0.952148V12.2936ZM14.3392 2.73097V0.977137H10.6055V2.7293H14.3392V2.73097ZM15.2913 0.977137V2.7293H19.0462V2.02777C19.0462 1.7388 18.9307 1.47656 18.7451 1.28615C18.5596 1.09573 18.304 0.977137 18.0225 0.977137H15.2913ZM9.65332 2.73097V0.977137H5.81543V2.7293H9.65332V2.73097ZM4.86165 2.73097V0.977137H1.97591C1.69434 0.977137 1.4388 1.09573 1.25326 1.28615C1.06771 1.47656 0.952148 1.7388 0.952148 2.02777V2.7293H4.86165V2.73097Z" fill="white"/>
</svg>
